<svg id="Layer_1" enable-background="new 0 0 128 128" viewBox="0 0 128 128" width="48" height="48" xmlns="http://www.w3.org/2000/svg"><path d="m51.4 33.5c0 3.8-1.5 7.4-4.2 10.1-5.6 5.6-14.6 5.6-20.1 0s-5.6-14.6 0-20.1 14.6-5.6 20.1 0c2.7 2.6 4.2 6.2 4.2 10z" fill="#ffc900"></path><path d="m91.8 33.5-2.5 23.3-5.4 51.1-1.1 10.6h-36.7l-1.1-10.6-6-56.4-1.9-18z" fill="#ebecee"></path><path d="m89.3 56.8-5.4 51.1-1.1 10.6h-36.7l-1.1-10.6-6-56.5s9.7 6.8 28.4 2.3c4.9-1.3 10.1-1.3 15 0 2.5.7 4.8 1.8 6.9 3.1z" fill="#ffda2d"></path><path d="m83.9 107.9-1.1 10.6h-36.7l-1.1-10.6z" fill="#ebecee"></path><path d="m106.9 9.5c0 1-.8 1.7-1.7 1.8h-24.6c-3.2 0-5.9 2.4-6.4 5.5l-2.3 16.7-6 42.7c-.1.9-.9 1.5-1.7 1.5-.1 0-.2 0-.2 0-1-.1-1.6-1-1.5-2l5.9-42.3 2.4-17.2c.7-4.9 4.9-8.5 9.8-8.6h24.6c.9.1 1.7.9 1.7 1.9z" fill="#983729"></path></svg>